<?xml version="1.0" encoding="UTF-8"?>
<svg xmlns="http://www.w3.org/2000/svg" version="1.1" width="200" height="200" viewBox="0 0 200 200"><rect x="0" y="0" width="200" height="200" fill="#ffffff"/><g transform="scale(6.897)"><g transform="translate(0,0)"><path fill-rule="evenodd" d="M10 0L10 2L11 2L11 0ZM12 0L12 1L13 1L13 0ZM16 0L16 1L15 1L15 2L14 2L14 3L13 3L13 2L12 2L12 4L13 4L13 5L11 5L11 6L10 6L10 4L11 4L11 3L8 3L8 4L9 4L9 5L8 5L8 7L9 7L9 8L6 8L6 9L10 9L10 11L11 11L11 9L12 9L12 10L13 10L13 9L15 9L15 8L13 8L13 9L12 9L12 7L13 7L13 6L14 6L14 7L15 7L15 6L16 6L16 8L17 8L17 9L16 9L16 10L14 10L14 11L16 11L16 10L17 10L17 9L18 9L18 11L19 11L19 10L20 10L20 8L21 8L21 9L22 9L22 10L23 10L23 12L24 12L24 10L25 10L25 9L26 9L26 8L25 8L25 9L24 9L24 8L23 8L23 9L22 9L22 8L21 8L21 4L20 4L20 3L21 3L21 0ZM8 1L8 2L9 2L9 1ZM16 1L16 2L15 2L15 3L16 3L16 4L14 4L14 5L16 5L16 4L17 4L17 3L18 3L18 4L19 4L19 3L20 3L20 1L19 1L19 2L18 2L18 1ZM17 5L17 8L18 8L18 9L19 9L19 7L20 7L20 5ZM9 6L9 7L10 7L10 6ZM11 6L11 7L12 7L12 6ZM18 6L18 7L19 7L19 6ZM0 8L0 9L2 9L2 10L1 10L1 11L0 11L0 12L1 12L1 11L2 11L2 10L3 10L3 12L2 12L2 13L0 13L0 14L2 14L2 13L3 13L3 16L4 16L4 18L3 18L3 19L2 19L2 20L3 20L3 21L4 21L4 19L7 19L7 18L8 18L8 19L9 19L9 21L8 21L8 20L5 20L5 21L8 21L8 23L11 23L11 24L8 24L8 29L9 29L9 27L11 27L11 26L10 26L10 25L12 25L12 26L13 26L13 27L12 27L12 29L13 29L13 28L14 28L14 29L16 29L16 27L17 27L17 25L18 25L18 24L15 24L15 23L18 23L18 22L19 22L19 24L20 24L20 25L21 25L21 27L20 27L20 26L19 26L19 27L18 27L18 28L17 28L17 29L18 29L18 28L19 28L19 29L20 29L20 28L21 28L21 29L23 29L23 28L24 28L24 29L25 29L25 28L26 28L26 29L27 29L27 28L28 28L28 26L29 26L29 24L28 24L28 23L27 23L27 22L29 22L29 20L28 20L28 19L27 19L27 16L28 16L28 15L27 15L27 12L28 12L28 11L27 11L27 12L25 12L25 13L21 13L21 12L22 12L22 11L20 11L20 13L19 13L19 14L17 14L17 13L18 13L18 12L13 12L13 11L12 11L12 13L13 13L13 14L11 14L11 15L7 15L7 14L8 14L8 13L7 13L7 12L6 12L6 13L7 13L7 14L6 14L6 15L7 15L7 16L4 16L4 15L5 15L5 14L4 14L4 13L3 13L3 12L4 12L4 11L7 11L7 10L5 10L5 8ZM10 8L10 9L11 9L11 8ZM27 8L27 9L28 9L28 10L29 10L29 9L28 9L28 8ZM8 10L8 11L9 11L9 10ZM9 12L9 14L10 14L10 13L11 13L11 12ZM14 13L14 14L16 14L16 16L18 16L18 17L17 17L17 18L18 18L18 17L20 17L20 16L21 16L21 18L22 18L22 19L21 19L21 20L22 20L22 19L23 19L23 20L24 20L24 19L25 19L25 21L26 21L26 20L27 20L27 19L25 19L25 18L24 18L24 19L23 19L23 18L22 18L22 17L26 17L26 16L27 16L27 15L26 15L26 13L25 13L25 14L24 14L24 15L23 15L23 14L22 14L22 15L20 15L20 14L19 14L19 15L17 15L17 14L16 14L16 13ZM28 13L28 14L29 14L29 13ZM12 15L12 17L11 17L11 16L8 16L8 18L9 18L9 19L10 19L10 20L11 20L11 21L10 21L10 22L13 22L13 23L12 23L12 25L15 25L15 26L16 26L16 25L15 25L15 24L14 24L14 23L15 23L15 22L17 22L17 20L18 20L18 21L19 21L19 22L20 22L20 18L19 18L19 19L17 19L17 20L16 20L16 19L14 19L14 20L13 20L13 21L12 21L12 19L13 19L13 18L12 18L12 17L14 17L14 18L16 18L16 17L15 17L15 16L14 16L14 15ZM19 15L19 16L20 16L20 15ZM24 15L24 16L25 16L25 15ZM0 16L0 21L1 21L1 16ZM5 17L5 18L7 18L7 17ZM9 17L9 18L10 18L10 19L11 19L11 18L10 18L10 17ZM28 17L28 18L29 18L29 17ZM14 20L14 21L15 21L15 20ZM21 21L21 24L24 24L24 21ZM22 22L22 23L23 23L23 22ZM26 23L26 24L25 24L25 25L24 25L24 26L25 26L25 25L26 25L26 24L27 24L27 23ZM22 25L22 26L23 26L23 25ZM26 26L26 28L27 28L27 26ZM14 27L14 28L15 28L15 27ZM21 27L21 28L22 28L22 27ZM0 0L0 7L7 7L7 0ZM1 1L1 6L6 6L6 1ZM2 2L2 5L5 5L5 2ZM22 0L22 7L29 7L29 0ZM23 1L23 6L28 6L28 1ZM24 2L24 5L27 5L27 2ZM0 22L0 29L7 29L7 22ZM1 23L1 28L6 28L6 23ZM2 24L2 27L5 27L5 24Z" fill="#000000"/></g></g></svg>
