<?xml version="1.0" encoding="UTF-8"?>
<svg xmlns="http://www.w3.org/2000/svg" version="1.1" width="200" height="200" viewBox="0 0 200 200"><rect x="0" y="0" width="200" height="200" fill="#ffffff"/><g transform="scale(6.897)"><g transform="translate(0,0)"><path fill-rule="evenodd" d="M10 0L10 2L11 2L11 0ZM12 0L12 1L13 1L13 2L12 2L12 4L16 4L16 5L15 5L15 6L14 6L14 5L11 5L11 6L10 6L10 4L11 4L11 3L8 3L8 4L9 4L9 5L8 5L8 7L9 7L9 8L6 8L6 9L5 9L5 8L0 8L0 9L5 9L5 10L4 10L4 11L3 11L3 10L0 10L0 12L1 12L1 14L0 14L0 15L1 15L1 14L4 14L4 15L5 15L5 16L3 16L3 15L2 15L2 16L0 16L0 21L1 21L1 18L2 18L2 16L3 16L3 17L4 17L4 18L3 18L3 19L2 19L2 21L7 21L7 20L8 20L8 19L7 19L7 18L5 18L5 16L6 16L6 17L7 17L7 16L8 16L8 15L7 15L7 14L8 14L8 12L9 12L9 13L11 13L11 12L9 12L9 10L8 10L8 11L7 11L7 10L6 10L6 9L10 9L10 11L11 11L11 9L12 9L12 10L13 10L13 11L12 11L12 13L14 13L14 15L16 15L16 16L17 16L17 17L16 17L16 18L15 18L15 19L14 19L14 20L13 20L13 19L11 19L11 18L10 18L10 16L11 16L11 17L12 17L12 18L14 18L14 17L15 17L15 16L12 16L12 15L13 15L13 14L11 14L11 15L10 15L10 14L9 14L9 18L10 18L10 21L11 21L11 22L10 22L10 23L11 23L11 22L12 22L12 21L11 21L11 20L13 20L13 23L18 23L18 22L19 22L19 24L20 24L20 25L21 25L21 27L20 27L20 26L19 26L19 25L18 25L18 24L12 24L12 25L10 25L10 26L12 26L12 25L16 25L16 26L14 26L14 28L13 28L13 27L11 27L11 28L10 28L10 27L9 27L9 24L8 24L8 29L9 29L9 28L10 28L10 29L11 29L11 28L13 28L13 29L16 29L16 27L17 27L17 26L19 26L19 29L20 29L20 28L21 28L21 29L23 29L23 28L24 28L24 29L25 29L25 28L26 28L26 29L27 29L27 28L28 28L28 26L29 26L29 23L27 23L27 22L29 22L29 20L28 20L28 19L27 19L27 16L28 16L28 15L27 15L27 12L28 12L28 11L27 11L27 12L25 12L25 13L21 13L21 12L22 12L22 11L20 11L20 13L18 13L18 12L19 12L19 11L18 11L18 12L17 12L17 11L16 11L16 10L17 10L17 9L18 9L18 8L17 8L17 9L16 9L16 7L17 7L17 6L18 6L18 7L19 7L19 10L20 10L20 8L21 8L21 9L22 9L22 10L23 10L23 12L24 12L24 10L25 10L25 9L26 9L26 8L25 8L25 9L24 9L24 8L23 8L23 9L22 9L22 8L21 8L21 4L20 4L20 3L21 3L21 2L20 2L20 3L19 3L19 5L17 5L17 4L18 4L18 3L15 3L15 2L17 2L17 1L18 1L18 2L19 2L19 1L21 1L21 0L17 0L17 1L14 1L14 0ZM8 1L8 2L9 2L9 1ZM13 2L13 3L14 3L14 2ZM19 5L19 7L20 7L20 5ZM9 6L9 7L10 7L10 6ZM11 6L11 7L12 7L12 9L13 9L13 8L15 8L15 7L16 7L16 6L15 6L15 7L14 7L14 6L13 6L13 7L12 7L12 6ZM10 8L10 9L11 9L11 8ZM27 8L27 9L28 9L28 10L29 10L29 9L28 9L28 8ZM14 9L14 10L16 10L16 9ZM5 10L5 11L6 11L6 12L7 12L7 11L6 11L6 10ZM1 11L1 12L2 12L2 11ZM13 11L13 12L14 12L14 11ZM6 13L6 14L5 14L5 15L6 15L6 16L7 16L7 15L6 15L6 14L7 14L7 13ZM15 13L15 14L16 14L16 13ZM17 13L17 16L18 16L18 17L17 17L17 19L15 19L15 20L16 20L16 21L14 21L14 22L16 22L16 21L17 21L17 20L18 20L18 21L19 21L19 22L20 22L20 18L18 18L18 17L20 17L20 16L21 16L21 18L22 18L22 19L21 19L21 20L22 20L22 19L23 19L23 20L24 20L24 19L25 19L25 21L26 21L26 20L27 20L27 19L25 19L25 18L24 18L24 19L23 19L23 18L22 18L22 17L26 17L26 16L27 16L27 15L26 15L26 13L25 13L25 14L24 14L24 15L23 15L23 14L22 14L22 15L20 15L20 14L19 14L19 15L18 15L18 13ZM28 13L28 14L29 14L29 13ZM19 15L19 16L20 16L20 15ZM24 15L24 16L25 16L25 15ZM28 17L28 18L29 18L29 17ZM4 18L4 19L3 19L3 20L4 20L4 19L5 19L5 20L7 20L7 19L5 19L5 18ZM18 19L18 20L19 20L19 19ZM8 21L8 23L9 23L9 21ZM21 21L21 24L24 24L24 21ZM22 22L22 23L23 23L23 22ZM26 23L26 24L25 24L25 25L24 25L24 26L25 26L25 25L26 25L26 24L27 24L27 25L28 25L28 24L27 24L27 23ZM22 25L22 26L23 26L23 25ZM26 26L26 28L27 28L27 26ZM21 27L21 28L22 28L22 27ZM17 28L17 29L18 29L18 28ZM0 0L0 7L7 7L7 0ZM1 1L1 6L6 6L6 1ZM2 2L2 5L5 5L5 2ZM22 0L22 7L29 7L29 0ZM23 1L23 6L28 6L28 1ZM24 2L24 5L27 5L27 2ZM0 22L0 29L7 29L7 22ZM1 23L1 28L6 28L6 23ZM2 24L2 27L5 27L5 24Z" fill="#000000"/></g></g></svg>
