<?xml version="1.0" encoding="UTF-8"?>
<svg xmlns="http://www.w3.org/2000/svg" version="1.1" width="200" height="200" viewBox="0 0 200 200"><rect x="0" y="0" width="200" height="200" fill="#ffffff"/><g transform="scale(6.897)"><g transform="translate(0,0)"><path fill-rule="evenodd" d="M9 0L9 1L8 1L8 3L9 3L9 4L8 4L8 8L6 8L6 9L8 9L8 8L10 8L10 10L9 10L9 11L11 11L11 10L12 10L12 9L11 9L11 8L10 8L10 7L11 7L11 6L12 6L12 8L13 8L13 12L12 12L12 13L9 13L9 12L8 12L8 11L7 11L7 10L5 10L5 9L4 9L4 8L3 8L3 9L2 9L2 8L0 8L0 11L1 11L1 12L2 12L2 13L3 13L3 14L4 14L4 15L2 15L2 14L0 14L0 16L1 16L1 15L2 15L2 16L3 16L3 17L1 17L1 18L0 18L0 19L1 19L1 18L2 18L2 19L3 19L3 20L4 20L4 19L7 19L7 20L5 20L5 21L8 21L8 23L9 23L9 25L8 25L8 26L9 26L9 27L8 27L8 29L10 29L10 28L12 28L12 29L14 29L14 28L12 28L12 24L14 24L14 25L13 25L13 27L15 27L15 28L16 28L16 27L15 27L15 24L14 24L14 23L15 23L15 22L14 22L14 21L15 21L15 20L14 20L14 18L15 18L15 17L16 17L16 18L17 18L17 17L18 17L18 16L19 16L19 17L20 17L20 16L19 16L19 14L20 14L20 15L21 15L21 14L22 14L22 15L23 15L23 16L24 16L24 15L23 15L23 14L22 14L22 13L23 13L23 12L25 12L25 13L26 13L26 15L25 15L25 17L26 17L26 15L27 15L27 17L28 17L28 18L27 18L27 20L26 20L26 22L27 22L27 23L26 23L26 24L28 24L28 22L29 22L29 21L27 21L27 20L29 20L29 17L28 17L28 15L29 15L29 14L27 14L27 13L29 13L29 12L28 12L28 10L29 10L29 9L28 9L28 8L26 8L26 9L25 9L25 8L22 8L22 10L19 10L19 9L20 9L20 8L21 8L21 6L20 6L20 5L19 5L19 6L18 6L18 5L17 5L17 3L18 3L18 4L19 4L19 3L18 3L18 1L20 1L20 0L12 0L12 1L11 1L11 2L9 2L9 1L10 1L10 0ZM16 1L16 2L17 2L17 1ZM13 2L13 3L12 3L12 4L9 4L9 5L10 5L10 6L9 6L9 7L10 7L10 6L11 6L11 5L12 5L12 6L13 6L13 8L15 8L15 9L14 9L14 13L13 13L13 14L14 14L14 16L16 16L16 17L17 17L17 16L16 16L16 15L17 15L17 12L18 12L18 14L19 14L19 13L21 13L21 11L20 11L20 12L19 12L19 10L16 10L16 8L15 8L15 7L16 7L16 6L15 6L15 5L13 5L13 4L14 4L14 2ZM20 2L20 3L21 3L21 2ZM14 6L14 7L15 7L15 6ZM17 6L17 7L18 7L18 6ZM19 6L19 7L20 7L20 6ZM17 8L17 9L19 9L19 8ZM23 9L23 10L22 10L22 12L23 12L23 10L24 10L24 11L25 11L25 9ZM26 9L26 10L28 10L28 9ZM1 10L1 11L2 11L2 12L3 12L3 13L4 13L4 14L5 14L5 15L4 15L4 16L7 16L7 17L6 17L6 18L7 18L7 17L8 17L8 19L9 19L9 20L10 20L10 21L11 21L11 19L12 19L12 20L13 20L13 21L14 21L14 20L13 20L13 18L14 18L14 17L13 17L13 16L12 16L12 14L11 14L11 15L10 15L10 14L8 14L8 12L7 12L7 11L6 11L6 12L5 12L5 11L4 11L4 10ZM15 11L15 12L17 12L17 11ZM6 12L6 13L7 13L7 12ZM26 12L26 13L27 13L27 12ZM14 13L14 14L15 14L15 13ZM6 14L6 15L7 15L7 14ZM8 15L8 16L9 16L9 17L10 17L10 19L11 19L11 17L12 17L12 16L11 16L11 17L10 17L10 15ZM21 16L21 17L22 17L22 19L23 19L23 20L21 20L21 19L20 19L20 21L19 21L19 22L20 22L20 25L21 25L21 26L23 26L23 25L24 25L24 27L26 27L26 26L28 26L28 27L27 27L27 29L28 29L28 27L29 27L29 26L28 26L28 25L25 25L25 20L24 20L24 17L22 17L22 16ZM3 17L3 18L5 18L5 17ZM25 18L25 19L26 19L26 18ZM16 19L16 23L18 23L18 24L17 24L17 25L18 25L18 24L19 24L19 23L18 23L18 22L17 22L17 20L18 20L18 19ZM0 20L0 21L1 21L1 20ZM21 21L21 24L24 24L24 21ZM9 22L9 23L10 23L10 25L9 25L9 26L10 26L10 27L9 27L9 28L10 28L10 27L11 27L11 26L10 26L10 25L11 25L11 22ZM22 22L22 23L23 23L23 22ZM17 26L17 29L18 29L18 28L19 28L19 27L20 27L20 29L21 29L21 27L20 27L20 26L19 26L19 27L18 27L18 26ZM22 27L22 29L23 29L23 27ZM24 28L24 29L26 29L26 28ZM0 0L0 7L7 7L7 0ZM1 1L1 6L6 6L6 1ZM2 2L2 5L5 5L5 2ZM22 0L22 7L29 7L29 0ZM23 1L23 6L28 6L28 1ZM24 2L24 5L27 5L27 2ZM0 22L0 29L7 29L7 22ZM1 23L1 28L6 28L6 23ZM2 24L2 27L5 27L5 24Z" fill="#000000"/></g></g></svg>
