<?xml version="1.0" encoding="UTF-8"?>
<svg xmlns="http://www.w3.org/2000/svg" version="1.1" width="200" height="200" viewBox="0 0 200 200"><rect x="0" y="0" width="200" height="200" fill="#ffffff"/><g transform="scale(6.897)"><g transform="translate(0,0)"><path fill-rule="evenodd" d="M9 0L9 1L8 1L8 2L9 2L9 3L8 3L8 4L10 4L10 7L11 7L11 4L12 4L12 5L14 5L14 7L15 7L15 8L13 8L13 6L12 6L12 9L14 9L14 12L13 12L13 13L12 13L12 11L13 11L13 10L11 10L11 11L10 11L10 9L11 9L11 8L6 8L6 9L8 9L8 13L7 13L7 12L5 12L5 13L4 13L4 14L3 14L3 13L1 13L1 12L3 12L3 10L4 10L4 9L5 9L5 8L0 8L0 10L1 10L1 9L2 9L2 11L1 11L1 12L0 12L0 13L1 13L1 14L0 14L0 16L1 16L1 15L4 15L4 16L6 16L6 17L7 17L7 18L3 18L3 16L2 16L2 17L0 17L0 21L1 21L1 18L2 18L2 19L4 19L4 20L2 20L2 21L4 21L4 20L6 20L6 21L7 21L7 20L6 20L6 19L9 19L9 21L8 21L8 23L9 23L9 21L12 21L12 22L13 22L13 23L12 23L12 25L13 25L13 24L14 24L14 25L16 25L16 26L15 26L15 27L14 27L14 28L15 28L15 29L16 29L16 27L17 27L17 26L19 26L19 29L20 29L20 28L21 28L21 29L23 29L23 28L24 28L24 29L25 29L25 28L26 28L26 29L27 29L27 28L28 28L28 26L29 26L29 24L26 24L26 23L27 23L27 22L29 22L29 20L28 20L28 19L27 19L27 16L28 16L28 15L27 15L27 12L28 12L28 11L27 11L27 12L25 12L25 13L21 13L21 12L22 12L22 11L20 11L20 13L18 13L18 12L19 12L19 11L18 11L18 12L17 12L17 11L16 11L16 10L17 10L17 9L18 9L18 8L17 8L17 9L16 9L16 7L17 7L17 6L18 6L18 7L19 7L19 10L20 10L20 8L21 8L21 9L22 9L22 10L23 10L23 12L24 12L24 10L25 10L25 9L26 9L26 8L25 8L25 9L24 9L24 8L23 8L23 9L22 9L22 8L21 8L21 4L20 4L20 3L21 3L21 2L20 2L20 3L19 3L19 5L17 5L17 4L18 4L18 3L15 3L15 2L17 2L17 1L18 1L18 2L19 2L19 1L21 1L21 0L17 0L17 1L14 1L14 0L13 0L13 1L11 1L11 2L10 2L10 0ZM12 2L12 4L13 4L13 3L14 3L14 2ZM10 3L10 4L11 4L11 3ZM14 4L14 5L16 5L16 4ZM8 5L8 7L9 7L9 5ZM19 5L19 7L20 7L20 5ZM15 6L15 7L16 7L16 6ZM27 8L27 9L28 9L28 10L29 10L29 9L28 9L28 8ZM15 9L15 10L16 10L16 9ZM5 10L5 11L7 11L7 10ZM10 12L10 13L8 13L8 16L7 16L7 15L6 15L6 16L7 16L7 17L8 17L8 18L10 18L10 17L8 17L8 16L10 16L10 15L9 15L9 14L10 14L10 13L11 13L11 18L13 18L13 19L12 19L12 21L14 21L14 22L16 22L16 21L17 21L17 20L18 20L18 21L19 21L19 22L18 22L18 23L14 23L14 24L18 24L18 25L19 25L19 26L20 26L20 27L21 27L21 28L22 28L22 27L21 27L21 25L20 25L20 24L19 24L19 22L20 22L20 18L18 18L18 17L20 17L20 16L21 16L21 18L22 18L22 19L21 19L21 20L22 20L22 19L23 19L23 20L24 20L24 19L25 19L25 21L26 21L26 20L27 20L27 19L25 19L25 18L24 18L24 19L23 19L23 18L22 18L22 17L26 17L26 16L27 16L27 15L26 15L26 13L25 13L25 14L24 14L24 15L23 15L23 14L22 14L22 15L20 15L20 14L19 14L19 15L18 15L18 13L17 13L17 16L16 16L16 15L15 15L15 14L16 14L16 13L15 13L15 14L14 14L14 13L13 13L13 14L12 14L12 13L11 13L11 12ZM5 13L5 14L7 14L7 13ZM28 13L28 14L29 14L29 13ZM12 15L12 17L15 17L15 16L13 16L13 15ZM19 15L19 16L20 16L20 15ZM24 15L24 16L25 16L25 15ZM17 16L17 17L16 17L16 18L14 18L14 20L15 20L15 21L16 21L16 20L15 20L15 19L17 19L17 17L18 17L18 16ZM28 17L28 18L29 18L29 17ZM18 19L18 20L19 20L19 19ZM21 21L21 24L24 24L24 21ZM22 22L22 23L23 23L23 22ZM10 23L10 24L11 24L11 23ZM8 24L8 29L9 29L9 28L10 28L10 29L12 29L12 27L13 27L13 26L11 26L11 28L10 28L10 27L9 27L9 24ZM25 24L25 25L24 25L24 26L25 26L25 25L26 25L26 24ZM22 25L22 26L23 26L23 25ZM26 26L26 28L27 28L27 26ZM17 28L17 29L18 29L18 28ZM0 0L0 7L7 7L7 0ZM1 1L1 6L6 6L6 1ZM2 2L2 5L5 5L5 2ZM22 0L22 7L29 7L29 0ZM23 1L23 6L28 6L28 1ZM24 2L24 5L27 5L27 2ZM0 22L0 29L7 29L7 22ZM1 23L1 28L6 28L6 23ZM2 24L2 27L5 27L5 24Z" fill="#000000"/></g></g></svg>
